<svg xmlns="http://www.w3.org/2000/svg" width="8" height="8" viewBox="0 0 8 8" fill="none">
  <g clip-path="url(#clip0_0_646)">
    <path fill-rule="evenodd" clip-rule="evenodd" d="M7.93463 3.51006C7.90543 3.68616 7.87786 3.85251 7.87766 4.00374C7.87744 4.1646 7.9045 4.33707 7.93313 4.51963L7.93327 4.52052C7.99068 4.88591 8.05005 5.26374 7.90182 5.62062C7.7536 5.97751 7.44401 6.20211 7.14461 6.4193L7.14422 6.41958C6.99451 6.52821 6.8531 6.63081 6.73922 6.74456C6.63225 6.85139 6.53389 6.98827 6.42977 7.13319L6.42966 7.13333C6.22165 7.42284 5.98586 7.75098 5.61305 7.90499C5.44199 7.97567 5.26543 8 5.09052 8C4.88425 8 4.68024 7.96618 4.48992 7.93464C4.31382 7.90543 4.14747 7.87786 3.99624 7.87766H3.9943C3.83378 7.87766 3.66171 7.9047 3.47957 7.93332L3.47945 7.93334L3.47931 7.93336C3.11398 7.99075 2.73619 8.0501 2.37936 7.90188C2.02248 7.75367 1.79789 7.44408 1.5807 7.14469L1.58069 7.14468C1.47196 6.99481 1.36927 6.85325 1.25542 6.73928C1.14857 6.63229 1.0117 6.53394 0.866791 6.42981L0.866638 6.4297L0.866603 6.42968C0.577118 6.22167 0.248986 5.98588 0.0949954 5.61309C-0.0590018 5.24027 0.00706617 4.84164 0.0653679 4.48995C0.0945735 4.31383 0.122138 4.14749 0.122341 3.99625C0.12256 3.83526 0.0954387 3.66262 0.0667237 3.47983L0.0666649 3.47946C0.00925385 3.11408 -0.0501105 2.73624 0.0981206 2.37936C0.246352 2.02249 0.55594 1.79789 0.855324 1.5807L0.855489 1.58058C1.00528 1.47189 1.14678 1.36923 1.26073 1.25542C1.36769 1.14859 1.46604 1.01171 1.57017 0.866799L1.57027 0.866649C1.77829 0.577139 2.01408 0.249 2.38689 0.0950022C2.75972 -0.0590075 3.15832 0.00706908 3.51002 0.06537L3.51005 0.0653746L3.51024 0.0654072C3.68628 0.0945852 3.85255 0.122145 4.00373 0.122348H4.00565C4.16617 0.122348 4.33824 0.0953108 4.52039 0.0666901L4.5205 0.0666715C4.88589 0.00924457 5.26374 -0.0501044 5.62063 0.0981275C5.97745 0.24634 6.20202 0.555854 6.41922 0.855204L6.4193 0.85532L6.41942 0.855476C6.5281 1.00527 6.63077 1.14678 6.74458 1.26073C6.85137 1.36768 6.9882 1.466 7.13306 1.57008L7.13336 1.5703L7.13337 1.57031C7.42288 1.77833 7.75101 2.0141 7.905 2.38691V2.38692C8.059 2.75974 7.99293 3.15837 7.93463 3.51006ZM1.11094 5.22072C1.2384 5.52212 1.41029 5.79863 1.62314 6.04542L1.95585 5.71269C1.56724 5.24935 1.33311 4.65206 1.33311 4.00002C1.33311 2.52712 2.52712 1.33311 4.00001 1.33311C4.65205 1.33311 5.24933 1.56726 5.71267 1.95587L6.04538 1.62315C5.7986 1.41029 5.5221 1.23842 5.2207 1.11094C4.83381 0.947297 4.42312 0.86432 4.00001 0.86432C3.57689 0.86432 3.1662 0.947297 2.77931 1.11094C2.40586 1.26889 2.07057 1.49492 1.78275 1.78275C1.49492 2.07057 1.26889 2.40586 1.11094 2.77932C0.947301 3.16621 0.864325 3.5769 0.864325 4.00002C0.864325 4.42314 0.947301 4.83384 1.11094 5.22072ZM6.21726 6.2173C6.50508 5.92947 6.73111 5.59418 6.88906 5.22072C7.0527 4.83383 7.13568 4.42314 7.13566 4.00004C7.13566 3.57692 7.05268 3.16623 6.88905 2.77933C6.76157 2.47793 6.58969 2.20144 6.37683 1.95464L6.04412 2.28735C6.43274 2.75069 6.66687 3.34796 6.66687 4.00002C6.66687 5.47292 5.47287 6.66693 3.99998 6.66693C3.34794 6.66693 2.75065 6.43278 2.28732 6.04417L1.9546 6.37689C2.20141 6.58975 2.4779 6.76162 2.7793 6.8891C3.16619 7.05274 3.57688 7.13572 3.99999 7.13572C4.42311 7.13572 4.8338 7.05274 5.22069 6.8891C5.59414 6.73115 5.92943 6.50512 6.21726 6.2173Z" fill="url(#paint0_linear_0_646)"/>
  </g>
  <defs>
    <linearGradient id="paint0_linear_0_646" x1="4" y1="0" x2="4" y2="8" gradientUnits="userSpaceOnUse">
      <stop stop-color="#4614E8"/>
      <stop offset="1" stop-color="#BCA7FF"/>
    </linearGradient>
    <clipPath id="clip0_0_646">
      <rect width="8" height="8" fill="white"/>
    </clipPath>
  </defs>
</svg>