<svg width="22" height="22" viewBox="0 0 22 22" fill="none" xmlns="http://www.w3.org/2000/svg">
<g id="menu (34) 1">
<path id="Vector" d="M21.0833 11.8976H0.916667C0.410665 11.8976 0 11.487 0 10.981C0 10.475 0.410665 10.0643 0.916667 10.0643H21.0833C21.5893 10.0643 22 10.475 22 10.981C22 11.487 21.5893 11.8976 21.0833 11.8976Z" fill="#4614E8"/>
<path id="Vector_2" d="M21.0833 4.86979H0.916667C0.410665 4.86979 0 4.45913 0 3.95312C0 3.44712 0.410665 3.03646 0.916667 3.03646H21.0833C21.5893 3.03646 22 3.44712 22 3.95312C22 4.45913 21.5893 4.86979 21.0833 4.86979Z" fill="#4614E8"/>
<path id="Vector_3" d="M21.0833 18.9253H0.916667C0.410665 18.9253 0 18.5146 0 18.0086C0 17.5026 0.410665 17.0919 0.916667 17.0919H21.0833C21.5893 17.0919 22 17.5026 22 18.0086C22 18.5146 21.5893 18.9253 21.0833 18.9253Z" fill="#4614E8"/>
</g>
</svg>
