<svg width="69" height="46" viewBox="0 0 65 12" fill="none" xmlns="http://www.w3.org/2000/svg">
<path d="M8.72871 3.2959C8.42793 3.15918 8.09069 3.03385 7.71699 2.91992C7.39798 2.82422 7.01745 2.73763 6.57539 2.66016C6.13333 2.57812 5.64342 2.53711 5.10566 2.53711C4.64082 2.53711 4.24661 2.5599 3.92305 2.60547C3.59948 2.64648 3.33516 2.71484 3.13008 2.81055C2.92956 2.90169 2.78372 3.02018 2.69258 3.16602C2.60143 3.30729 2.55586 3.47819 2.55586 3.67871C2.55586 3.87923 2.60599 4.05469 2.70625 4.20508C2.80651 4.35091 2.96829 4.48079 3.1916 4.59473C3.41491 4.70866 3.70657 4.80892 4.0666 4.89551C4.42663 4.9821 4.86868 5.06641 5.39277 5.14844C6.11738 5.25781 6.76452 5.39909 7.33418 5.57227C7.90384 5.74544 8.38463 5.95964 8.77656 6.21484C9.17305 6.46549 9.47383 6.764 9.67891 7.11035C9.88854 7.45671 9.99336 7.86003 9.99336 8.32031C9.99336 8.83529 9.87715 9.27507 9.64473 9.63965C9.41686 10.0042 9.09557 10.3027 8.68086 10.5352C8.2707 10.7676 7.78079 10.9362 7.21113 11.041C6.64147 11.1504 6.01712 11.2051 5.33809 11.2051C4.90514 11.2051 4.50182 11.1891 4.12812 11.1572C3.75443 11.1253 3.40807 11.082 3.08906 11.0273C2.77461 10.9727 2.4875 10.9111 2.22773 10.8428C1.97253 10.7744 1.74238 10.7038 1.5373 10.6309C1.05879 10.4622 0.660025 10.2708 0.341015 10.0566L1.24336 8.76465C1.54414 8.93327 1.89961 9.08366 2.30976 9.21582C2.66068 9.32975 3.08678 9.43229 3.58809 9.52344C4.09394 9.61458 4.67728 9.66016 5.33809 9.66016C5.79381 9.66016 6.19486 9.63965 6.54121 9.59863C6.89212 9.55306 7.18379 9.47786 7.41621 9.37305C7.65319 9.26823 7.83092 9.13151 7.94941 8.96289C8.07246 8.78971 8.13398 8.57552 8.13398 8.32031C8.13398 8.11523 8.08841 7.93522 7.99726 7.78027C7.90612 7.62533 7.74434 7.48633 7.51191 7.36328C7.27949 7.24023 6.96504 7.13086 6.56855 7.03516C6.17207 6.9349 5.66849 6.84147 5.05781 6.75488C4.20104 6.63184 3.49238 6.47233 2.93184 6.27637C2.37129 6.0804 1.92467 5.85254 1.59199 5.59277C1.25931 5.32845 1.02689 5.03678 0.894726 4.71777C0.762564 4.39421 0.696484 4.04785 0.696484 3.67871C0.696484 3.30501 0.7694 2.95638 0.915234 2.63281C1.06562 2.30469 1.31172 2.01986 1.65351 1.77832C1.99987 1.53678 2.45332 1.34538 3.01387 1.2041C3.57897 1.06283 4.27624 0.992188 5.10566 0.992188C5.90319 0.992188 6.58678 1.0446 7.15644 1.14941C7.73066 1.25423 8.20006 1.37044 8.56465 1.49805C8.99303 1.64844 9.3485 1.81706 9.63105 2.00391L8.72871 3.2959ZM14.0823 1.19727H15.928V11H14.0823V1.19727ZM20.4272 11V1.19727H26.6274C27.2244 1.19727 27.7508 1.27018 28.2065 1.41602C28.6668 1.55729 29.0519 1.76237 29.3618 2.03125C29.6717 2.30013 29.9064 2.62598 30.0659 3.00879C30.2254 3.38704 30.3051 3.81315 30.3051 4.28711C30.3051 4.72005 30.239 5.09603 30.1069 5.41504C29.9747 5.73405 29.8015 6.00749 29.5873 6.23535C29.3732 6.45866 29.1316 6.64323 28.8627 6.78906C28.5939 6.9349 28.3227 7.04883 28.0493 7.13086L30.3188 11H28.2954L26.1762 7.37695H22.2729V11H20.4272ZM22.2729 2.74219V5.83203H26.6274C27.2016 5.83203 27.6482 5.71126 27.9672 5.46973C28.2862 5.22363 28.4457 4.82943 28.4457 4.28711C28.4457 3.74935 28.2862 3.35742 27.9672 3.11133C27.6482 2.86523 27.2016 2.74219 26.6274 2.74219H22.2729ZM34.5513 1.19727H36.397V11H34.5513V1.19727ZM45.9411 11.2051C44.9886 11.2051 44.1911 11.0957 43.5485 10.877C42.9059 10.6536 42.3864 10.3392 41.9899 9.93359C41.598 9.52344 41.3177 9.03353 41.1491 8.46387C40.9805 7.88965 40.8962 7.25163 40.8962 6.5498V1.19727H42.7419V6.5498C42.7419 7.00553 42.7897 7.4248 42.8854 7.80762C42.9811 8.18587 43.1498 8.514 43.3913 8.79199C43.6374 9.06543 43.9655 9.27962 44.3757 9.43457C44.7904 9.58496 45.3122 9.66016 45.9411 9.66016C46.57 9.66016 47.0895 9.58496 47.4997 9.43457C47.9144 9.27962 48.2425 9.06543 48.4841 8.79199C48.7302 8.514 48.9011 8.18587 48.9968 7.80762C49.0925 7.4248 49.1403 7.00553 49.1403 6.5498V1.19727H50.986V6.5498C50.986 7.25163 50.9017 7.88965 50.7331 8.46387C50.5645 9.03353 50.2819 9.52344 49.8854 9.93359C49.4935 10.3392 48.974 10.6536 48.3268 10.877C47.6843 11.0957 46.889 11.2051 45.9411 11.2051ZM63.3943 3.2959C63.0936 3.15918 62.7563 3.03385 62.3826 2.91992C62.0636 2.82422 61.6831 2.73763 61.241 2.66016C60.799 2.57812 60.3091 2.53711 59.7713 2.53711C59.3064 2.53711 58.9122 2.5599 58.5887 2.60547C58.2651 2.64648 58.0008 2.71484 57.7957 2.81055C57.5952 2.90169 57.4493 3.02018 57.3582 3.16602C57.2671 3.30729 57.2215 3.47819 57.2215 3.67871C57.2215 3.87923 57.2716 4.05469 57.3719 4.20508C57.4721 4.35091 57.6339 4.48079 57.8572 4.59473C58.0805 4.70866 58.3722 4.80892 58.7322 4.89551C59.0923 4.9821 59.5343 5.06641 60.0584 5.14844C60.783 5.25781 61.4301 5.39909 61.9998 5.57227C62.5695 5.74544 63.0503 5.95964 63.4422 6.21484C63.8387 6.46549 64.1395 6.764 64.3445 7.11035C64.5542 7.45671 64.659 7.86003 64.659 8.32031C64.659 8.83529 64.5428 9.27507 64.3104 9.63965C64.0825 10.0042 63.7612 10.3027 63.3465 10.5352C62.9363 10.7676 62.4464 10.9362 61.8768 11.041C61.3071 11.1504 60.6827 11.2051 60.0037 11.2051C59.5708 11.2051 59.1674 11.1891 58.7938 11.1572C58.4201 11.1253 58.0737 11.082 57.7547 11.0273C57.4402 10.9727 57.1531 10.9111 56.8934 10.8428C56.6382 10.7744 56.408 10.7038 56.2029 10.6309C55.7244 10.4622 55.3257 10.2708 55.0066 10.0566L55.909 8.76465C56.2098 8.93327 56.5652 9.08366 56.9754 9.21582C57.3263 9.32975 57.7524 9.43229 58.2537 9.52344C58.7596 9.61458 59.3429 9.66016 60.0037 9.66016C60.4594 9.66016 60.8605 9.63965 61.2068 9.59863C61.5577 9.55306 61.8494 9.47786 62.0818 9.37305C62.3188 9.26823 62.4966 9.13151 62.615 8.96289C62.7381 8.78971 62.7996 8.57552 62.7996 8.32031C62.7996 8.11523 62.754 7.93522 62.6629 7.78027C62.5717 7.62533 62.41 7.48633 62.1775 7.36328C61.9451 7.24023 61.6307 7.13086 61.2342 7.03516C60.8377 6.9349 60.3341 6.84147 59.7234 6.75488C58.8667 6.63184 58.158 6.47233 57.5975 6.27637C57.0369 6.0804 56.5903 5.85254 56.2576 5.59277C55.9249 5.32845 55.6925 5.03678 55.5604 4.71777C55.4282 4.39421 55.3621 4.04785 55.3621 3.67871C55.3621 3.30501 55.435 2.95638 55.5809 2.63281C55.7313 2.30469 55.9773 2.01986 56.3191 1.77832C56.6655 1.53678 57.1189 1.34538 57.6795 1.2041C58.2446 1.06283 58.9419 0.992188 59.7713 0.992188C60.5688 0.992188 61.2524 1.0446 61.8221 1.14941C62.3963 1.25423 62.8657 1.37044 63.2303 1.49805C63.6587 1.64844 64.0141 1.81706 64.2967 2.00391L63.3943 3.2959Z" fill="white"/>
</svg>
