<svg width="54" height="27" viewBox="0 0 64 27" fill="none" xmlns="http://www.w3.org/2000/svg">
<path d="M0.988 0.676715H6.82V25.8767H0.988V0.676715ZM16.4005 0.676715H22.2325V21.1247H34.8685V25.8767H16.4005V0.676715ZM53.3652 26.3087C50.7972 26.3087 48.4692 25.7567 46.3812 24.6527C44.3172 23.5247 42.6852 21.9767 41.4852 20.0087C40.3092 18.0167 39.7212 15.7727 39.7212 13.2767C39.7212 10.7807 40.3092 8.54872 41.4852 6.58072C42.6852 4.58872 44.3172 3.04072 46.3812 1.93672C48.4692 0.808716 50.8092 0.244716 53.4012 0.244716C55.5852 0.244716 57.5532 0.628716 59.3052 1.39672C61.0812 2.16472 62.5692 3.26872 63.7692 4.70872L60.0252 8.16472C58.3212 6.19672 56.2092 5.21272 53.6892 5.21272C52.1292 5.21272 50.7372 5.56072 49.5132 6.25672C48.2892 6.92872 47.3292 7.87672 46.6332 9.10072C45.9612 10.3247 45.6252 11.7167 45.6252 13.2767C45.6252 14.8367 45.9612 16.2287 46.6332 17.4527C47.3292 18.6767 48.2892 19.6367 49.5132 20.3327C50.7372 21.0047 52.1292 21.3407 53.6892 21.3407C56.2092 21.3407 58.3212 20.3447 60.0252 18.3527L63.7692 21.8087C62.5692 23.2727 61.0812 24.3887 59.3052 25.1567C57.5292 25.9247 55.5492 26.3087 53.3652 26.3087Z" fill="black"/>
</svg>
