<svg width="168" height="36" viewBox="0 0 168 36" fill="none" xmlns="http://www.w3.org/2000/svg">
<rect x="132.5" y="0.5" width="35" height="35" rx="9.5" stroke="#CFDAE7"/>
<rect x="88.5" y="0.5" width="35" height="35" rx="9.5" stroke="#CFDAE7"/>
<rect x="44.5" y="0.5" width="35" height="35" rx="9.5" stroke="#CFDAE7"/>
<rect x="0.5" y="0.5" width="35" height="35" rx="9.5" stroke="#CFDAE7"/>
<path d="M153.579 9H151.704C150.269 9 149.239 9.3405 148.613 10.0213C147.987 10.7022 147.674 11.7052 147.674 13.0304V14.2937C147.674 14.6275 147.403 14.8981 147.069 14.8981H146.421C146.087 14.8981 145.817 15.1687 145.817 15.5025V17.3956C145.817 17.7294 146.087 18 146.421 18H147.069C147.403 18 147.674 18.2706 147.674 18.6044V26.3955C147.674 26.7294 147.944 27 148.278 27H150.794C151.128 27 151.398 26.7294 151.398 26.3955V18.6044C151.398 18.2706 151.669 18 152.003 18H153.273C153.607 18 153.906 17.7309 153.941 17.399L154.142 15.4991C154.177 15.1671 153.934 14.8981 153.601 14.8981H152.002C151.668 14.8981 151.398 14.6275 151.398 14.2937V13.3472C151.398 13.1143 151.409 12.934 151.431 12.8064C151.452 12.6791 151.502 12.5536 151.578 12.4296C151.655 12.306 151.778 12.2203 151.95 12.173C152.121 12.1256 152.348 12.1019 152.632 12.1019H153.579C153.912 12.1019 154.183 11.8313 154.183 11.4974V9.60442C154.183 9.27057 153.913 9 153.579 9Z" fill="#273895"/>
</svg>
